<svg width="394" height="241" viewBox="0 0 394 241" fill="none" xmlns="http://www.w3.org/2000/svg">
<path d="M393.247 206V240.333H343.122V206C343.122 179.392 331.427 155.53 312.713 138.363C393.247 146.775 393.247 206 393.247 206ZM292.997 0C320.733 0 343.122 23.0033 343.122 51.5C343.122 79.9967 320.733 103 292.997 103C287.818 103 282.638 102.142 277.96 100.597C287.484 86.6917 292.997 69.8683 292.997 51.5C292.997 33.3033 287.484 16.3083 277.96 2.40333C282.638 0.858331 287.818 0 292.997 0ZM209.456 0C237.192 0 259.581 23.0033 259.581 51.5C259.581 79.9967 237.192 103 209.456 103C181.72 103 159.331 79.9967 159.331 51.5C159.331 23.0033 181.72 0 209.456 0ZM309.706 206V240.333H109.206V206C109.206 168.062 154.151 137.333 209.456 137.333C264.76 137.333 309.706 168.062 309.706 206ZM0 139.393L35.5219 103L0 66.6067L23.659 42.23L59.0807 78.795L94.5023 42.23L118.228 66.6067L82.6394 103L118.228 139.393L94.5023 163.77L59.0807 127.205L23.659 163.77L0 139.393Z" fill="#E7E7E7"/>
</svg>
